<svg xmlns="http://www.w3.org/2000/svg" viewBox="0 0 131.99 108.7"><defs><style>.cls-1{fill:none;stroke:#d0d3e6;stroke-linecap:round;stroke-miterlimit:10;}.cls-2,.cls-5{font-size:14px;fill:#efc9b2;}.cls-2{font-family:GrafolitaScript-Medium, Grafolita Script;font-weight:500;}.cls-3{letter-spacing:-0.02em;}.cls-4{letter-spacing:-0.05em;}.cls-5{font-family:GrafolitaScript-Regular, Grafolita Script;}.cls-6{letter-spacing:-0.03em;}.cls-7{letter-spacing:-0.05em;}.cls-8{letter-spacing:-0.05em;}.cls-9{fill:#bed5bb;}.cls-10{fill:#f2d2e1;}</style></defs><g id="Cercle"><path class="cls-1" d="M80.89,27.42A53.9,53.9,0,0,0,34.26,54.34" transform="translate(-14.96 -26.92)"/><path class="cls-1" d="M80.89,27.42a53.91,53.91,0,0,1,46.64,26.92" transform="translate(-14.96 -26.92)"/><path class="cls-1" d="M80.9,135.12a53.9,53.9,0,0,1-46.64-26.93" transform="translate(-14.96 -26.92)"/><path class="cls-1" d="M80.89,135.12a53.9,53.9,0,0,0,46.64-26.93" transform="translate(-14.96 -26.92)"/></g><g id="Calque_6" data-name="Calque 6"><text class="cls-2" transform="translate(58.82 40.44)"><tspan class="cls-3">L</tspan><tspan x="7.95" y="0">e</tspan><tspan class="cls-4" x="12.53" y="0">s</tspan></text><text class="cls-5" transform="translate(50.77 57.17)"><tspan class="cls-6">P</tspan><tspan x="9.73" y="0">etit</tspan><tspan class="cls-7" x="24.96" y="0">s</tspan></text><text class="cls-5" transform="translate(39.64 70.09)">Bourgeon<tspan class="cls-8" x="49.62" y="0">s</tspan></text></g><g id="Calque_5" data-name="Calque 5"><path class="cls-9" d="M21,59.61c-.73,2,.33,4.13,1.37,5.84a30.19,30.19,0,0,0,2.23,3.33,16.63,16.63,0,0,1,3,4.37,32.07,32.07,0,0,0-1.08,6A8.88,8.88,0,0,0,24,75.32c-1.67-1.74-3.33-3.49-4.88-5.34a.2.2,0,0,0-.35.2c.3,1.14-.07,2.48.39,3.58A7.88,7.88,0,0,0,21,76.38a22.84,22.84,0,0,0,2.88,2.41,28.1,28.1,0,0,0,2.59,1.12c0,.63-.06,1.26-.06,1.88s0,1.5.08,2.23l-.23,0c-3-2.84-6.86-5.22-11.09-4.58a.2.2,0,0,0-.13.31c1.34,1.83,3.56,2.82,5.53,3.81a9.09,9.09,0,0,0,5.34.86,3,3,0,0,0,.52.08l.11.1a33.33,33.33,0,0,0,.86,5.18h0c-2.6-1.95-6.28-2.14-9.4-2.43a.2.2,0,0,0-.15.36c2.63,2.43,6.17,2.67,9.59,2.5a.12.12,0,0,0,.11.09c.31,1.2.67,2.39,1.09,3.59.23.66.47,1.33.72,2h-.15a.07.07,0,0,0,0-.07c-1.91-2-5.75-3-8.42-2.73a.18.18,0,0,0-.15.26c1.65,3.21,5.61,3.73,8.84,2.82a48,48,0,0,0,2.19,5.12h0C30,99.92,27,98.39,25,99.45c-.1.06-.19.21-.09.32a7.33,7.33,0,0,0,6.46,1.84l.24.11a.1.1,0,0,0,.15-.06,23.43,23.43,0,0,0,3.35,5,.08.08,0,1,0,.13-.1,41.09,41.09,0,0,1-2.9-4.68.15.15,0,0,0,.21-.12l0-.19A7.22,7.22,0,0,0,35,94.46c0-.11-.16-.21-.26-.12C33,96,32.32,99.1,32.25,101.48a.18.18,0,0,1-.07,0,48.88,48.88,0,0,1-2.4-5.43L30,96a.08.08,0,0,0,.06-.09.17.17,0,0,0,.06-.15v-.1c2.62-1.06,3.63-4.17,3.68-6.85a.16.16,0,0,0-.28-.12c-1.39,1.75-4.18,4.12-3.84,6.64a2,2,0,0,0-.11.2c-.22-.59-.42-1.18-.62-1.77-.4-1.19-.75-2.38-1.06-3.58,2.73-.92,4.66-3.25,6-5.69a.19.19,0,0,0-.19-.25c-2.63.49-4.78,3-6,5.28a32.28,32.28,0,0,1-.8-5c1.4-.91,3.17-.79,4.54-1.7a17.65,17.65,0,0,0,4-4,.18.18,0,0,0-.2-.27c-3,1.39-7.29,1.7-8.43,5.26,0-.35,0-.69,0-1.05,0-1.2,0-2.43.12-3.66,1.54-1,3.29-.92,5-1.6a8.93,8.93,0,0,0,3.27-2.3c.11-.12-.08-.31-.2-.2-1.58,1.36-3.64,0-5.41.63A4.08,4.08,0,0,0,27.12,78a.35.35,0,0,0-.05.08,32.07,32.07,0,0,1,1-5.24.14.14,0,0,0,.09,0c2-1.1,4.64-.73,6.83-.8a16.76,16.76,0,0,0,5.75-1,.16.16,0,0,0,0-.3,30,30,0,0,0-8-.47c-1.93.14-2.93,1-4.48,2.08a24.48,24.48,0,0,1,1.7-4.25.1.1,0,0,0,.1-.06,1,1,0,0,1,.08-.14.11.11,0,0,0,.11-.13s0,0,0,0c2.11-3.1,9.11,2.15,10.78-2.2a.17.17,0,0,0-.18-.23c-3.4.31-7.47-1.36-10.16,1.52A18.63,18.63,0,0,1,32.2,64.6h0c1.57-1.16,3.65-.68,5.16-2.08a11.58,11.58,0,0,0,2.8-4.38.19.19,0,0,0-.29-.22c-1.47,1.13-3.62.75-5,1.95a6.7,6.7,0,0,0-2.68,4,.1.1,0,0,0,.2.05,6.67,6.67,0,0,1,4.95-4.65,8.24,8.24,0,0,0,2-.56c.66-.35.4-.33.09.3-1,2-2.43,4-4.82,4.39a5.92,5.92,0,0,0-1.75.46,17.49,17.49,0,0,1,2.69-2.37.06.06,0,1,0-.07-.1,17.89,17.89,0,0,0-5.38,5.81A1.62,1.62,0,0,1,30,67c0-.16,0-.32,0-.48a8.22,8.22,0,0,0,.79-6.83c-.19-.65-.31-3.73-1.2-3.85-1.06-.14-1.85,2.58-1.91,3.34-.21,3.1,1.57,5.44,2.17,8.32a23.46,23.46,0,0,0-1.68,3.63A11.63,11.63,0,0,0,26.46,67c-1.53-2.62-3-5.42-5.22-7.5A.18.18,0,0,0,21,59.61ZM30,65.73c0-1.69-.3-3.37-.45-5.05a.08.08,0,0,0-.15,0c-.21,1.83.34,3.64.46,5.46a1.59,1.59,0,0,0-.07.2,36.56,36.56,0,0,1-1.6-4.91,6.13,6.13,0,0,1,.21-3.37c.08-.18,1.05-2,1.17-1.69a28,28,0,0,1,.89,4A9.77,9.77,0,0,1,30,65.73Zm2.62,35.39.09-.57c.56-.63.91-1.49,1.41-2.17a.08.08,0,1,0-.12-.09c-.41.52-.84,1.08-1.21,1.66a13.62,13.62,0,0,1,.3-1.65,10.22,10.22,0,0,1,.63-1.94c.11-.22,1-1.4,1-1.52A7.39,7.39,0,0,1,32.65,101.12Zm-2,.1a8.8,8.8,0,0,0-2.29-.6c-.08,0-.1.12,0,.14.68.12,1.33.51,2,.67a7.74,7.74,0,0,1-4.94-1.72C27.22,99,29.06,100.27,30.67,101.22Zm-.57-5.79a2.26,2.26,0,0,1,0-.26A22.63,22.63,0,0,1,32,92.58c.07-.07,0-.18-.12-.12a7.58,7.58,0,0,0-1.72,2.11c.31-2,2-3.65,3.22-5.17.44-.52.08.34,0,.73a8.89,8.89,0,0,1-.58,2.21A5.93,5.93,0,0,1,30.1,95.43Zm-.4.46,0-.06.1,0a.64.64,0,0,0,0,.07H29.7Zm-.85,0c-1.47-.06-2.81-.62-4.29-.64-.08,0-.1.13,0,.13a32,32,0,0,1,3.38.77,9.36,9.36,0,0,1-2.59,0,6.27,6.27,0,0,1-2.81-1,12,12,0,0,1-1.38-1.69A15,15,0,0,1,28.85,95.93Zm2.54-8.46A11.64,11.64,0,0,1,28,89.92c1-1.93,2.73-4.17,4.81-5,1-.38-.12,1-.32,1.27A13,13,0,0,1,31.39,87.47Zm-12.86.38c2.92.26,6,.5,8.51,2.15C24,89.83,21,89.84,18.53,87.85ZM27.4,90a.06.06,0,0,0,0,0h0A.08.08,0,0,1,27.4,90Zm2.53-6.89a16.75,16.75,0,0,0-1.94.55c1.08-.68,2.18-1.28,3.3-1.92.07,0,0-.18-.08-.14a12.66,12.66,0,0,0-3.72,2.2.08.08,0,0,0,0,.1,3.24,3.24,0,0,0-.35.21,6.16,6.16,0,0,1,4-3.61c1-.35,3.36-.87,3.74-1.33C33.53,80.76,32,82.55,29.93,83.09Zm-4.24.85a21.3,21.3,0,0,1-2.11-1.1,4.17,4.17,0,0,0-2.64-.7.07.07,0,0,0,0,.13c1.64-.13,2.85,1.26,4.21,1.93a9.58,9.58,0,0,1-4.92-1.14A22.53,22.53,0,0,1,17,81.2c-.43-.32-2.29-1.41-.85-1.44C19.8,79.67,23,81.65,25.69,83.94Zm4.85-17v0h0Zm.73-.32a6.78,6.78,0,0,1,3.65-1.22c1.21,0,2.39.2,3.59.27a14,14,0,0,0,1.83,0c.53,0-.33.69-.52.8a4.84,4.84,0,0,1-2.76.43C35.76,66.84,33,66.12,31.27,66.64Zm-2.11,5.43a10.68,10.68,0,0,1,1.19-.84,7.28,7.28,0,0,1,3.6-.66,28.48,28.48,0,0,1,4.23.12c.69.08,3.28.11.77.61a34,34,0,0,1-6.69.46A9.74,9.74,0,0,0,29.16,72.07Zm-1,.53h0Zm6.81,2.93-.26.18A1.2,1.2,0,0,0,34.94,75.53Zm-5.61,2.3a5.23,5.23,0,0,0-2.1.83,4.09,4.09,0,0,1,.18-.56,3.8,3.8,0,0,1,1.11-.77l1.47-.6c.08,0,0-.15,0-.12a10,10,0,0,0-2.18.81c1-1.43,2.81-1.55,4.61-1.45a4.46,4.46,0,0,0,2.31-.25c-.37.22-.91.49-1.19.67a7.83,7.83,0,0,1-1.2.67A17.64,17.64,0,0,1,29.33,77.83Zm-3,1.62-.3-.14a16.06,16.06,0,0,1-3.07-2.93c-.05-.06-.17,0-.13.07a7.75,7.75,0,0,0,2.64,2.67,5.1,5.1,0,0,1-1-.41A13.79,13.79,0,0,1,22,76.84c-1.2-1.09-2.61-2.48-2.64-4.24,0-.62,0-1.21-.05-1.81,1.26,1.48,2.59,2.9,3.94,4.29A11.74,11.74,0,0,1,26.3,79.45Zm-3-16.84c.74,1.18,1.45,2.38,2.16,3.58a16.25,16.25,0,0,1,2.16,4.63,14.82,14.82,0,0,0-2.12-3,.07.07,0,0,0-.11.07c.59,1,1.92,2.42,2.37,3.81,0,.22,0,.45,0,.67l-.12.4c-1.61-3.92-6-6.76-6.54-11.18C20.82,59,22.76,61.77,23.3,62.61Z" transform="translate(-14.96 -26.92)"/><path class="cls-9" d="M36.27,66.08a.11.11,0,0,1,0,.22c-1-.08-2-.13-3.05-.18-.07,0-.09-.13,0-.15A9,9,0,0,1,36.27,66.08Z" transform="translate(-14.96 -26.92)"/><path class="cls-9" d="M28.21,89.52a22.6,22.6,0,0,1,2.15-1.88c.07-.06.15.06.08.12a23.46,23.46,0,0,1-2.15,1.84C28.24,89.63,28.16,89.57,28.21,89.52Z" transform="translate(-14.96 -26.92)"/><path class="cls-9" d="M140.68,59.54c-2.24,2.08-3.69,4.88-5.22,7.5a12,12,0,0,0-1.74,4.13,24.39,24.39,0,0,0-1.67-3.63c.59-2.88,2.38-5.22,2.16-8.32-.06-.76-.85-3.48-1.91-3.34-.88.12-1,3.2-1.19,3.85a8.19,8.19,0,0,0,.78,6.83c0,.16,0,.32,0,.48a1.06,1.06,0,0,0,0,.19,18,18,0,0,0-5.39-5.81c-.06-.05-.14,0-.07.1a17,17,0,0,1,2.69,2.37,5.94,5.94,0,0,0-1.74-.46c-2.4-.38-3.83-2.35-4.83-4.39-.3-.63-.56-.65.09-.3a8.37,8.37,0,0,0,2,.56,6.7,6.7,0,0,1,5,4.65c0,.11.21.06.2-.05a6.76,6.76,0,0,0-2.69-4c-1.41-1.2-3.56-.82-5-1.95a.19.19,0,0,0-.29.22,11.58,11.58,0,0,0,2.8,4.38c1.52,1.4,3.59.92,5.16,2.08h0a18.71,18.71,0,0,1,1.6,2.25c-2.7-2.88-6.77-1.21-10.17-1.52a.16.16,0,0,0-.17.23c1.67,4.35,8.66-.9,10.77,2.2a.08.08,0,0,1,0,0,.11.11,0,0,0,.11.13l.09.14a.1.1,0,0,0,.1.06,25.26,25.26,0,0,1,1.69,4.25c-1.55-1-2.54-1.94-4.48-2.08a30,30,0,0,0-8,.47.16.16,0,0,0,0,.3,16.76,16.76,0,0,0,5.75,1c2.19.07,4.87-.3,6.84.8a.11.11,0,0,0,.08,0,33.19,33.19,0,0,1,1,5.24L134.8,78a4.08,4.08,0,0,0-2.5-2.29c-1.77-.61-3.84.73-5.41-.63-.13-.11-.32.08-.2.2a8.93,8.93,0,0,0,3.27,2.3c1.71.68,3.46.55,5,1.6.1,1.23.14,2.46.12,3.66,0,.36,0,.7,0,1.05-1.14-3.56-5.41-3.87-8.42-5.26a.18.18,0,0,0-.2.27,17.61,17.61,0,0,0,4,4c1.38.91,3.14.79,4.55,1.7a32.28,32.28,0,0,1-.8,5c-1.23-2.29-3.38-4.79-6-5.28a.18.18,0,0,0-.18.25c1.37,2.44,3.3,4.77,6,5.69-.31,1.2-.66,2.39-1.06,3.58-.19.59-.4,1.18-.61,1.77a2,2,0,0,1-.11-.2c.33-2.52-2.46-4.89-3.84-6.64a.17.17,0,0,0-.29.12c0,2.68,1.07,5.79,3.69,6.85a.31.31,0,0,0,0,.1.16.16,0,0,0,.07.15.09.09,0,0,0,0,.09l.23.07a50.86,50.86,0,0,1-2.41,5.43l-.06,0c-.07-2.38-.77-5.47-2.53-7.14-.1-.09-.23,0-.26.12a7.26,7.26,0,0,0,2.45,7.08l0,.19a.15.15,0,0,0,.21.12,41.09,41.09,0,0,1-2.9,4.68c-.07.09.06.19.14.1a23.77,23.77,0,0,0,3.34-5,.11.11,0,0,0,.16.06l.23-.11A7.33,7.33,0,0,0,137,99.77a.21.21,0,0,0-.09-.32c-1.95-1.06-5,.47-6.55,1.89h0a48,48,0,0,0,2.19-5.12c3.23.91,7.19.39,8.85-2.82a.19.19,0,0,0-.16-.26c-2.66-.22-6.51.76-8.41,2.73a.07.07,0,0,0,0,.07h-.14c.24-.67.48-1.34.71-2,.42-1.2.79-2.39,1.1-3.59a.12.12,0,0,0,.1-.09c3.42.17,7-.07,9.59-2.5a.2.2,0,0,0-.15-.36c-3.12.29-6.8.48-9.4,2.43a0,0,0,0,0,0,0,34.56,34.56,0,0,0,.86-5.18.52.52,0,0,1,.11-.1,3,3,0,0,0,.51-.08,9.12,9.12,0,0,0,5.35-.86c2-1,4.18-2,5.52-3.81a.2.2,0,0,0-.13-.31c-4.23-.64-8.13,1.74-11.09,4.58l-.23,0c.05-.73.08-1.47.08-2.23s0-1.25-.06-1.88a25.93,25.93,0,0,0,2.59-1.12A22.94,22.94,0,0,0,141,76.38a7.86,7.86,0,0,0,1.76-2.62c.47-1.1.09-2.44.39-3.58a.2.2,0,0,0-.35-.2c-1.55,1.85-3.21,3.6-4.88,5.34a9.07,9.07,0,0,0-2.45,3.86,32,32,0,0,0-1.07-6,16.84,16.84,0,0,1,3-4.37,28.84,28.84,0,0,0,2.23-3.33c1-1.71,2.1-3.82,1.37-5.84A.17.17,0,0,0,140.68,59.54Zm-9.25.79a29.47,29.47,0,0,1,.89-4c.13-.35,1.1,1.51,1.17,1.69a6.13,6.13,0,0,1,.21,3.37,36.51,36.51,0,0,1-1.59,4.91,1.59,1.59,0,0,1-.07-.2c.11-1.82.66-3.63.45-5.46a.08.08,0,0,0-.15,0c-.15,1.68-.41,3.36-.45,5.05A9.87,9.87,0,0,1,131.43,60.33Zm-4.29,34.51c0,.12.92,1.3,1,1.52a11,11,0,0,1,.64,1.94c.13.55.22,1.1.3,1.65-.37-.58-.81-1.14-1.22-1.66a.08.08,0,1,0-.12.09c.5.68.85,1.54,1.42,2.17,0,.19.05.38.08.57A7.42,7.42,0,0,1,127.14,94.84Zm9.35,4.87a7.77,7.77,0,0,1-5,1.72c.68-.16,1.33-.55,2-.67a.07.07,0,0,0,0-.14,8.9,8.9,0,0,0-2.29.6C132.87,100.27,134.7,99,136.49,99.71Zm-7.38-7.37a8.89,8.89,0,0,1-.58-2.21c-.06-.39-.41-1.25,0-.73,1.27,1.52,2.9,3.17,3.22,5.17a7.44,7.44,0,0,0-1.73-2.11c-.07-.06-.19.05-.12.12a21.5,21.5,0,0,1,1.9,2.59v.26A6,6,0,0,1,129.11,92.34Zm3,3.54h0a.64.64,0,0,0,0-.07l.1,0a.14.14,0,0,0,0,.06Zm8.65-2.41a11.81,11.81,0,0,1-1.37,1.69,6.35,6.35,0,0,1-2.82,1,9.36,9.36,0,0,1-2.59,0,32.53,32.53,0,0,1,3.38-.77c.09,0,.07-.13,0-.13-1.49,0-2.83.58-4.29.64A14.93,14.93,0,0,1,140.78,93.47Zm-11.3-7.28c-.19-.26-1.28-1.65-.31-1.27,2.07.83,3.81,3.07,4.8,5a11.64,11.64,0,0,1-3.44-2.45A14.6,14.6,0,0,1,129.48,86.19Zm5.4,3.81c2.51-1.65,5.59-1.89,8.52-2.15C140.9,89.84,138,89.83,134.88,90Zm-.33,0h0a.06.06,0,0,1,0,0A.08.08,0,0,0,134.55,90Zm-7.48-10.87c.38.46,2.76,1,3.74,1.33a6.14,6.14,0,0,1,4,3.61,2.5,2.5,0,0,0-.35-.21.07.07,0,0,0,0-.1,12.84,12.84,0,0,0-3.73-2.2c-.08,0-.15.1-.07.14,1.11.64,2.22,1.24,3.3,1.92a16.92,16.92,0,0,0-1.95-.55C129.91,82.55,128.39,80.76,127.07,79.15Zm18.69.61c1.44,0-.42,1.12-.85,1.44a22,22,0,0,1-3.23,1.86,9.56,9.56,0,0,1-4.92,1.14c1.36-.67,2.57-2.06,4.21-1.93.08,0,.1-.12,0-.13a4.18,4.18,0,0,0-2.65.7,22.33,22.33,0,0,1-2.1,1.1C138.94,81.65,142.12,79.67,145.76,79.76ZM131.4,67h0v0Zm-6.54-.06a4.84,4.84,0,0,1-2.76-.43c-.19-.11-1-.84-.52-.8a14,14,0,0,0,1.83,0c1.2-.07,2.39-.27,3.59-.27a6.82,6.82,0,0,1,3.66,1.22C128.9,66.12,126.17,66.84,124.86,66.93Zm4.8,4.83A34.07,34.07,0,0,1,123,71.3c-2.51-.5.08-.53.78-.61a28.44,28.44,0,0,1,4.23-.12,7.24,7.24,0,0,1,3.59.66,9.82,9.82,0,0,1,1.19.84A9.74,9.74,0,0,0,129.66,71.76Zm4.13.84h0Zm-6.55,3.11-.26-.18A1.51,1.51,0,0,0,127.24,75.71Zm2.39,1.35a7.83,7.83,0,0,1-1.2-.67c-.28-.18-.82-.45-1.18-.67a4.41,4.41,0,0,0,2.3.25c1.8-.1,3.64,0,4.61,1.45a10.09,10.09,0,0,0-2.17-.81c-.09,0-.14.09-.05.12.48.21,1,.4,1.46.6a3.67,3.67,0,0,1,1.11.77,4.09,4.09,0,0,1,.18.56,5.18,5.18,0,0,0-2.1-.83A17.64,17.64,0,0,1,129.63,77.06Zm9-2c1.35-1.39,2.68-2.81,3.94-4.29-.06.6,0,1.19-.05,1.81,0,1.76-1.44,3.15-2.63,4.24a14.23,14.23,0,0,1-2.44,1.87,5.1,5.1,0,0,1-1,.41,7.75,7.75,0,0,0,2.64-2.67c0-.08-.08-.13-.13-.07a16,16,0,0,1-3.06,2.93l-.31.14A11.74,11.74,0,0,1,138.67,75.08Zm2.12-13.49c-.52,4.42-4.92,7.26-6.53,11.18,0-.13-.08-.26-.13-.4s0-.45,0-.67c.44-1.39,1.77-2.83,2.36-3.81a.06.06,0,1,0-.1-.07,14.08,14.08,0,0,0-2.12,3,16,16,0,0,1,2.15-4.63c.72-1.2,1.42-2.4,2.17-3.58C139.16,61.77,141.1,59,140.79,61.59Z" transform="translate(-14.96 -26.92)"/><path class="cls-9" d="M125.65,66.08a.11.11,0,0,0,0,.22c1-.08,2-.13,3-.18.08,0,.1-.13,0-.15A9,9,0,0,0,125.65,66.08Z" transform="translate(-14.96 -26.92)"/><path class="cls-9" d="M133.71,89.52a21.32,21.32,0,0,0-2.14-1.88c-.08-.06-.16.06-.09.12a23.46,23.46,0,0,0,2.15,1.84C133.69,89.63,133.76,89.57,133.71,89.52Z" transform="translate(-14.96 -26.92)"/></g><g id="Calque_3" data-name="Calque 3"><path class="cls-10" d="M27,96.5c-.35-.33-.78-.49-1.14-.82-.6-.54-.53-1.58-.57-2.31,0-.05-.07-.05-.07,0a3.22,3.22,0,0,0,.47,2.48c.45.45,1.09.68,1.31,1.35s.14,1.18.37,1.77a6,6,0,0,0,.64,1.09,6.1,6.1,0,0,1,.74,1.88A2.37,2.37,0,0,0,30,103.61a0,0,0,0,0,0-.06,4.12,4.12,0,0,1-1.21-2.18c-.25-1-1-1.78-1.31-2.77C27.3,98,27.47,97,27,96.5Z" transform="translate(-14.96 -26.92)"/><path class="cls-10" d="M23,102.78a0,0,0,1,0,0,0c.48-.09.95-.22,1.43-.33,0,0,0,0,0,0A6.45,6.45,0,0,0,23,102.78Z" transform="translate(-14.96 -26.92)"/><path class="cls-10" d="M29.27,108.77c0-.08-.16,0-.13,0,.25.63,1,.81,1.57,1s1.37.4,2.06.54,2.43.08,1.47-1c0,0-.09,0-.08,0,.41,1.28-1.41.71-2.08.54S29.6,109.58,29.27,108.77Z" transform="translate(-14.96 -26.92)"/><path class="cls-10" d="M32.47,108.76a2.71,2.71,0,0,0,.23-2.45s-.08,0-.07,0a3.35,3.35,0,0,1-.21,2.39A0,0,0,0,0,32.47,108.76Z" transform="translate(-14.96 -26.92)"/><path class="cls-10" d="M46.33,102.61c-.47,0-.17-.59-.69-.67a2.32,2.32,0,0,0-.87.06,3.4,3.4,0,0,0,1.13-2.27,2.43,2.43,0,0,0-.51-1.55,3.43,3.43,0,0,0-.86-1.13c-.42-.23-.52,0-.84-.51-.1-.12-.32-.52-.51-.48-.65.13-.64-.57-1.15-.42a1.41,1.41,0,0,0-.05-.71.1.1,0,0,0-.14-.05c-.28.15-.31-.56-.37-.77a.08.08,0,0,0-.12,0l-.07,0A3.16,3.16,0,0,0,40.86,93c-.21-.34-.63-1.14-1.06-1.2a3.62,3.62,0,0,0-.57,0c.14,0-.62-.26-.6-.25-.34-.08-.53.59-.83.28-.51-.51-1.34.29-1.7.53-.06,0,0,.13,0,.09.58-.31,1.11-.75,1.69-.22a.14.14,0,0,0,.17,0c.36-.16.6-.39,1.05-.22s.69-.3,1,.1a3.15,3.15,0,0,1,.79,3.55s0,.08.06,0a2.13,2.13,0,0,0,.37-1.32,1.41,1.41,0,0,1,.23.78.09.09,0,0,0,.13,0c.54-.35,0,1-.12,1.2a5.6,5.6,0,0,1-.54.74,5.41,5.41,0,0,0-1.16-1.89h0c-.11-.95-1.69-1.88-2.37-2.1a1,1,0,0,0-.6,0,.81.81,0,0,0-.36.25c-.45.43-.76.1-1.19.06a2.41,2.41,0,0,0-.47,0,4.48,4.48,0,0,0,1-2.59.58.58,0,0,0-.4-.52,7.75,7.75,0,0,0-1.32-.66c-.32-.07-.83.67-1,.48a1.72,1.72,0,0,0-.6-.36c-.57-.08-.78.7-.82,1.23a2.57,2.57,0,0,0-.71-.64c-.69-.44-.88.7-1.36.37s-1,.52-1.11.87-.21.47-.63.68-.33.53-.48.83a2.09,2.09,0,0,0-.89-.83.16.16,0,0,0-.17.07c-.11.16-.2.46-.43.25a.14.14,0,0,0-.14,0c-1,.41-1.14,1.19-1.2,2.24-.08,1.44,1,2.67,1.73,3.78.14.2.28.41.41.62A8.79,8.79,0,0,0,25,98.15a.12.12,0,0,0-.16,0l-.83.47a.15.15,0,0,0-.15.14,2.43,2.43,0,0,0,0,.25,2.94,2.94,0,0,0-1.51.15s0,0,0,0c-.33-.76.19-1,.64-1.47a2.05,2.05,0,0,1,.43.09,3.18,3.18,0,0,0,.6.18,0,0,0,0,0,0-.09,1.78,1.78,0,0,0-.94-.3l.12-.12a1.22,1.22,0,0,0,.17-.56c.13-.68.88-.24,1.28-.25a0,0,0,0,0,0-.08,1.15,1.15,0,0,0-1.15-.26c-.37.14-.41.48-.46.82a.89.89,0,0,1-.26.47h0s0,0,0,0a7.92,7.92,0,0,0-.58.59.77.77,0,0,0,.1,1h0a2.48,2.48,0,0,0-1.21,1,2.08,2.08,0,0,0-.06,1.55,7.15,7.15,0,0,0,.71,2.37c.35.53,1.06.82,1.52,1.24s.39,1.36,1.08,1.55a.76.76,0,0,0,.45,0c.6.27,1.29.32,1.86.63a1.19,1.19,0,0,0,1.23.15c.8-.26,1.43-.88,2.26-1.15a5.56,5.56,0,0,0,.88-.35c.32-.15.29-.42.75-.49.11,0,.06-.18-.05-.16-.42.06-.45.25-.79.49-.58.41-1.41.46-2,.83-.28.16-.54.34-.82.5-1.17.67-.84,0-1.51-.17-.51-.11-1-.24-1.54-.39.22-.13.43-.31.63-.43A11,11,0,0,1,29,104.93a.09.09,0,0,0-.05-.18A11,11,0,0,0,26,106c-.75.43-1.61,1-2.13-.31a1.83,1.83,0,0,0-.54-.69c-.34-.3-.75-.51-1.1-.8a1.94,1.94,0,0,1-.54-1.13,4.45,4.45,0,0,1,2.39-.81s0-.08,0-.08a2.88,2.88,0,0,0-2.42.78,5.11,5.11,0,0,0-.17-.7,2.14,2.14,0,0,1,.27-2.43,2.52,2.52,0,0,1,2.38-.49.14.14,0,0,0,.16-.21c-.1-.23.52-.48.64-.59.45-.41,1.53.56,1.84.85a0,0,0,0,0,0,0,6.09,6.09,0,0,1,.7,1.66,3.79,3.79,0,0,0,.53,1.61,3.73,3.73,0,0,0,2.82,1.57,1.11,1.11,0,0,0,.83.47s0,0,0,0c0,.17.07.33.11.48s.1,0,.09,0a5.49,5.49,0,0,1,.26-3.87,0,0,0,1,0-.06,0,4.13,4.13,0,0,0-.41,3.39c-1.11-.44-1.2-2.36-1.19-3.32,0-.31.05-1.89.55-1.41a3.18,3.18,0,0,1,.3.33.13.13,0,0,0,.16.06c.11,0,.59-.24.58-.24a1.53,1.53,0,0,1,1.32.72l0,.08a.07.07,0,0,0,.1.08s0,0,0,0a.39.39,0,0,0,0,.09,4.87,4.87,0,0,0-.82,1.25,2.25,2.25,0,0,0-.4,1.65,0,0,0,1,0,.07,0c-.15-.55.3-1.21.58-1.65a9.46,9.46,0,0,1,.58-.79,2.09,2.09,0,0,1,.2-.22l.06,0a.45.45,0,0,0,.23.11c.71.32.33,1.11,0,1.49,0,0,0,0,0,.08a3.76,3.76,0,0,0-2,1.64c0,.06.06.11.1.06a4.28,4.28,0,0,1,1.66-1.32.06.06,0,0,0,.07,0,1.93,1.93,0,0,0,.53-.24h0c.48-.12,2.06-.8,2.36-.36a1.28,1.28,0,0,0,.72.59,4.58,4.58,0,0,0,.62.08,2.14,2.14,0,0,1,1.29.4l-.57.25a4.31,4.31,0,0,0-.6.22c-.06,0,0,.13,0,.12a2.52,2.52,0,0,0,1.22-.5,1.44,1.44,0,0,1-.16,1,.06.06,0,0,0,0,.06,1.69,1.69,0,0,1-.26.28s0,0,0,.08a4.79,4.79,0,0,1-2.41.22l-.73-.07-.08-.09a0,0,0,1,0,0,0l0,0a7.82,7.82,0,0,1-2.5-.49c-.06,0-.12.06-.06.09a9.5,9.5,0,0,0,2.8.69,5.15,5.15,0,0,0,1.68.86,1.94,1.94,0,0,0,1.05.2,4.07,4.07,0,0,1,2.16.26,4.58,4.58,0,0,0,3.32-.4.07.07,0,0,0,.07.11c.53-.12-.09,2-.17,2.19-.52,1.52-2,1.68-3.33,1.39a34.26,34.26,0,0,1-4.06-.78l.36-.08a2.92,2.92,0,0,0,1.39-.8c.62,0,1.21-.58,1.8-.07a2.69,2.69,0,0,0,3,.34c.28-.14.73-.39.72-.77,0-.12,0-.44-.18-.43s0,.06,0,.08c.3.17-.28.77-.45.87a2.46,2.46,0,0,1-.75.25,2.21,2.21,0,0,1-2-.34c-.26-.22-.51-.6-.91-.57-.59,0-1.34.62-1.73-.18-.56-1.14-1.16-.78-2.22-.7s-1.72-1.57-2.74-1.94c-.05,0-.08.06,0,.09,1,.51,1.7,2.39,3.07,2.12a3.17,3.17,0,0,1,.66-.06c-.32.57-1.35,1.35-1.93.94a3,3,0,0,1-.54-1.22.15.15,0,0,0-.18-.1c-1.08.24-1.13-1.63-1.63-2.19a0,0,0,0,0-.07,0,12.38,12.38,0,0,0,.82,2.15.91.91,0,0,0,.5.31c.34.1.33.15.47.43l-.13-.15s-.09,0-.07.06c.4,1,1.27,1.77,1,2.91-.13.62-.76.29-1.1.27-.54,0-1.09,0-1.63,0-.35,0-.75-.1-1.11-.12a1.87,1.87,0,0,1-1.66-1.08,1.56,1.56,0,0,0-.16-.2,1.37,1.37,0,0,1,.21-2.11,1.24,1.24,0,0,0,.48-.51s0-.07,0,0c-.55.7-2.23,1.22-1.25,2.44A8.26,8.26,0,0,0,30,110.76c.56.39,1.32.27,2,.39s1.62-.06,2.43.09a.65.65,0,0,0,.77-.24,2.37,2.37,0,0,0-.3-2.18c1.34,1.45,3.49,1.27,5.4,1.72,1.65.39,3.4.47,4.14-1.4.09-.24.78-2.66,0-2.44a6.13,6.13,0,0,0,1.85-1.38C46.66,104.86,47.58,102.72,46.33,102.61ZM35,108.6c.66.24,1.68-.48,1.94-1.1a1.05,1.05,0,0,1,.8.66,1.11,1.11,0,0,0,.4.55.7.7,0,0,0,.19.06,8.24,8.24,0,0,1-.85.55,2.27,2.27,0,0,1-1,.25A3.93,3.93,0,0,1,35,108.6Zm1-14.75a.75.75,0,0,0,.69-.31c.84-.93,3.24,1,2.93,2.13a1.19,1.19,0,0,0-1-.52,6.48,6.48,0,0,0-.75-.6.89.89,0,0,0-.43,0c-1,.18-.78-.26-1.43-.44s-.92.17-1.46.1a2.38,2.38,0,0,0-.57.15C34.46,93.67,35,93.7,36,93.85Zm-4.12,6a1.55,1.55,0,0,0-.34.23c-.06-.07-.11-.25-.22-.28s-.28-.34-.5-.16c-.59.46-.54,1.1-.58,1.78a6.18,6.18,0,0,0,.23,2,5.85,5.85,0,0,1-1.28-2.27,9.28,9.28,0,0,1-.34-2.82,0,0,0,1,0-.08,0c0,1.51.12,4.53,1.7,5.33a.06.06,0,0,0,.07,0,2.7,2.7,0,0,0,.26.54,4,4,0,0,1-2.26-1.24c-.68-.67-.65-1.67-.92-2.52-.45-1.44-1.66-2.53-2.39-3.83a3.79,3.79,0,0,1-.27-2.86c0-.2.39-1.17.82-.84A.41.41,0,0,0,26,93c.19,0,.37-.32.46-.44a19.78,19.78,0,0,0,1.34,1.62c.07.06.19,0,.13-.1-.18-.24-.34-.54-.52-.82a2,2,0,0,0,.22-.34c.29-.44.43-.23.66-.45.37-.37.58-2,1.4-1.28a.13.13,0,0,0,.2,0c1.19-1.77,2,1,2.26,1.81a.05.05,0,0,0,.1,0,3.22,3.22,0,0,0-.53-1.81,3.12,3.12,0,0,1,.29-1c.27-.51.34,0,.51,0,.33.13.72.42,1.07.08s.73-.14,1.11.1.85,0,.87.68c0,.86-.67,1.61-.94,2.41a1.23,1.23,0,0,0-.71.46.83.83,0,0,0-.57-.79,1.45,1.45,0,0,0-.74-.12c-.28.08-.88.64-1.07.16a.12.12,0,0,0-.17-.07,2.33,2.33,0,0,0-.88.77c-.31.4-.46.13-.81,0-.51-.21-.95.82-1.13,1.11v0c0-.08-.1-.1-.17-.09a1.6,1.6,0,0,0-1.28,1.72c0,.06.1.08.11,0a2.49,2.49,0,0,1,.51-1.15c.62-.74.62-.15.67.19,0,.08.11.11.18.1.36-.07.68-.24.73.24a1,1,0,0,0,.09.44.52.52,0,0,0,.54.23,5.67,5.67,0,0,0-.4,4.18s.09,0,.09,0c-.07-1.44-.31-2.89.45-4.2.38-.07,1.18-.58,1.23.41a2.81,2.81,0,0,1-.47,1.29,2.51,2.51,0,0,0-.43,1.29c0,.05.09.07.1,0A6.45,6.45,0,0,1,31.23,98a5.52,5.52,0,0,0,.7-.44c.91-.61.79.17,1.07.46a.77.77,0,0,0,1,0,.59.59,0,0,1,.23,0c-.09.37-.15.74-.27,1.1a4.55,4.55,0,0,1-.7,1.21A2.15,2.15,0,0,0,31.84,99.81Zm5.71,3.4c-.55-.09-.4-.4-.69-.66a.87.87,0,0,0-.23-.16,3.59,3.59,0,0,0,1-1.27,0,0,0,1,0,0,0,9.85,9.85,0,0,1-.67.78,2.58,2.58,0,0,1-.67.44,3.38,3.38,0,0,0-1.3.43l.16-.14a5.47,5.47,0,0,0,1.16-1.42,0,0,0,0,0-.06,0,8.17,8.17,0,0,1-1.13,1.22c-.27.22-.58.4-.87.6l-.09,0c.28-.26.59-.62.41-1a4.55,4.55,0,0,0-.91-1.25c.15-.26.27-.54.4-.8a6.46,6.46,0,0,0,.44-1.16s0-.06-.07,0A6.56,6.56,0,0,1,33.9,100c-.12.19-.25.38-.36.58l-.22-.22a3.6,3.6,0,0,0,1-2.36c.62.08,1.41,1.09,1.65,1.46.45.68-.54,1.81-.78,2.41,0,0,0,.06.06,0a4.53,4.53,0,0,0,1-2c.28,0,.63-.2.79.22a.13.13,0,0,0,.13.1c.49,0,1.12-.51,1.61-.56a4.09,4.09,0,0,1-1.36,2.38,0,0,0,0,0,0,.05,2.92,2.92,0,0,0,1.38-2.44.58.58,0,0,1,.57.42c0,.07.13,0,.13,0,0-.8-.84-.61-1.33-.41l-.6.23c-.28.11-.33.09-.52-.14s-.58,0-.84,0a.47.47,0,0,0,0-.17,3.65,3.65,0,0,0-1.44-1.67c-.17-.12-.47-.36-.71-.26s-.67.31-.89,0c-.09-.12-.08-.26-.19-.37-.52-.53-1.18,0-1.65.42a1.63,1.63,0,0,0,.12-1.06.7.7,0,0,0-.67-.46,2.28,2.28,0,0,0-.76.18c-.52.15-.46-.77-.52-1a.14.14,0,0,0-.18-.1c-.47.09-.63.2-.73-.21,0,0,0,0,0,0a3.42,3.42,0,0,0,.63-.78c.28-.35.78.16,1.07.26a.12.12,0,0,0,.14-.06c.08-.15.85-1.3,1-1a.35.35,0,0,0,.19.19.41.41,0,0,0,.22,0c.6-.27,1.93-1.08,2,.47a2,2,0,0,0-.18.36l-.23.09c-.7-.51-1.58.69-1.9,1.13-.05.07.06.15.12.09.44-.42,1.1-1.38,1.85-.81a.14.14,0,0,0,.18,0c.49-.62,1-.27,1.57-.5,1-.36.9.32,1.62.32a2,2,0,0,0,.56,0c.72-.12.6.25.91.57,0,0,.18,0,.22,0a1.61,1.61,0,0,1,1.35,1.6.09.09,0,0,0,.17,0,2.1,2.1,0,0,0-.37-1.13.91.91,0,0,0,.13-.38,10.65,10.65,0,0,1,1,2l-.09.14s0,.09.06.06l.06,0a2,2,0,0,1,0,.73l0,0a3.19,3.19,0,0,0-1.18-.69c-.07,0-.13,0-.13.1-.09.77.52,1.33.51,2.11,0,1.46-1.05,1.91-2.07,2.64,0,0,0,.07,0,.06,1.61-.65,2.94-2.21,1.93-4-.55-1,.56-.29.86,0s.31.5.69.55.42-.34.36-.69a3.14,3.14,0,0,1,.74,1.32c0,.22,0,.43,0,.65a3.75,3.75,0,0,1-1.08,2.32s0,.1.06.06a3.31,3.31,0,0,0,1.18-1.87,2.72,2.72,0,0,0,0-.9c0-.14,0-.28,0-.43s.2-.9.29-.42c0,.11.22.12.24,0v-.08c1.23,2.54-1,5.42-3.62,5.87a.72.72,0,0,0,.12-.92,1.92,1.92,0,0,0-1.32-.7C38.16,103.28,37.86,103.27,37.55,103.21Zm8.33,2.12a5.31,5.31,0,0,1-3.5,1.66,3.75,3.75,0,0,1-1.66-.21,2.55,2.55,0,0,0-1.24-.27,3.38,3.38,0,0,1-1.7,0,5.38,5.38,0,0,1-1.57-.65l.42,0c.92.1,2.09.2,2.78-.54a.06.06,0,0,0-.08-.1,1.29,1.29,0,0,0,.17-.16A4.83,4.83,0,0,0,43.62,102,5.3,5.3,0,0,0,45,99.2a.05.05,0,1,0-.1,0,7.1,7.1,0,0,1-1.18,2.46,3.7,3.7,0,0,0-.42-3,.12.12,0,0,0-.23.06v0a.53.53,0,0,0-.55.55A7.51,7.51,0,0,0,41.66,98a.12.12,0,0,0-.21.09s.13,1.1-.18.75c-.11-.11-.21-.23-.31-.34a1.89,1.89,0,0,0,.1-1.1A3.48,3.48,0,0,0,42,95.76c.48-.1.28.51.62.61a.59.59,0,0,0,.45-.07c.13-.06.63.68.75.83a.13.13,0,0,0,.12,0c.7-.21,1.51,1.54,1.66,2,.39,1.11-.53,2.36-1.35,3a.07.07,0,0,0,0,.06,3.74,3.74,0,0,0-.45.22c-.07,0,0,.13,0,.12.54-.12,2.06-.83,1.94.21,0,.06.06.14.12.13C47.45,102.67,46.29,104.83,45.88,105.33Z" transform="translate(-14.96 -26.92)"/><path class="cls-10" d="M39.39,104.65s0-.09,0-.07a7.41,7.41,0,0,1-1.93.5,10.14,10.14,0,0,1-2.06-.12,0,0,0,0,0,0,.08C36.53,105.2,38.44,105.63,39.39,104.65Z" transform="translate(-14.96 -26.92)"/><path class="cls-10" d="M38.81,96.91a1.65,1.65,0,0,0-.63-.5c-.12-.06-.5,0-.56,0A3.68,3.68,0,0,0,35.8,96c-.49,0-2.92-.19-2.95.7a.09.09,0,0,0,.17,0c.32-.47,1.33-.64,2.32-.59a.08.08,0,0,0,0,.1,1.11,1.11,0,0,0,.34.18c.15.06.72.2.37.38-.1,0-.05.21.06.22.6,0,.44,1.4.08,1.63a.07.07,0,0,0,.07.12,1.38,1.38,0,0,0,.43-1.54,2.12,2.12,0,0,1,.29.63.82.82,0,0,1,0,.41c0,.1-.14.11-.16.2s0,0,0,.06l0,0a6.26,6.26,0,0,0-.72.44.06.06,0,0,0,0,.11c.42,0,.73-.54,1.14-.22,0,0,.09,0,.13,0,.25-.11.37,0,.6,0,0,0,.06,0,.06-.07,0-.44-.64-.18-.82-.27h0l.29-.14c.11,0,.24-.06.31-.17a.13.13,0,0,0,0-.18h-.06a.17.17,0,0,1,.1,0c.06,0,.12.06.18.07a0,0,0,0,0,0,0,1.13,1.13,0,0,0,.74,1.3c.11,0,.2-.1.09-.15a.94.94,0,0,1-.55-1.35c0-.07,0-.17-.09-.17-.59,0-.58-.53-.42-.94a.91.91,0,0,1,.8.45.13.13,0,0,0,.15,0c.5.42.4,1.42.41,2a0,0,0,1,0,.09,0A3.76,3.76,0,0,0,38.89,97,.16.16,0,0,0,38.81,96.91Zm-.71,1h0v0S38.1,97.93,38.1,97.92Zm-.33-.14h-.08l-.1,0h-.06l-.05,0a1.47,1.47,0,0,0-.38-.71.06.06,0,0,0-.09.07,1.81,1.81,0,0,1,.24.53.59.59,0,0,1,0,.25l-.06,0a.08.08,0,0,0,0-.07,1.35,1.35,0,0,0-.52-.93s-.05,0-.06,0a.58.58,0,0,0-.24-.25c.26-.32-.45-.57-.83-.7a3.42,3.42,0,0,1,1.92.59.17.17,0,0,0,.16,0h0A.91.91,0,0,0,37.77,97.78Z" transform="translate(-14.96 -26.92)"/><path class="cls-10" d="M134.56,97.83c.36-.33.78-.49,1.14-.81.61-.55.53-1.59.58-2.32a0,0,0,1,1,.07,0,3.22,3.22,0,0,1-.48,2.48c-.45.45-1.08.68-1.31,1.35s-.13,1.18-.36,1.77a6.62,6.62,0,0,1-.64,1.09,5.61,5.61,0,0,0-.74,1.89,2.4,2.4,0,0,1-1.26,1.66s-.08,0-.05-.06a4.08,4.08,0,0,0,1.22-2.17c.24-1,1-1.79,1.3-2.78C134.22,99.34,134.05,98.3,134.56,97.83Z" transform="translate(-14.96 -26.92)"/><path class="cls-10" d="M138.52,104.11s0,.06,0,.06c-.48-.1-.95-.23-1.42-.34a0,0,0,0,1,0,0A7.16,7.16,0,0,1,138.52,104.11Z" transform="translate(-14.96 -26.92)"/><path class="cls-10" d="M132.24,110.1c0-.08.16,0,.13,0-.24.63-1,.82-1.57,1s-1.36.4-2.05.54-2.43.08-1.47-1c0,0,.09,0,.08,0-.41,1.29,1.4.71,2.08.54S131.91,110.91,132.24,110.1Z" transform="translate(-14.96 -26.92)"/><path class="cls-10" d="M129.05,110.09a2.65,2.65,0,0,1-.23-2.45s.07,0,.06,0a3.4,3.4,0,0,0,.22,2.39S129.07,110.12,129.05,110.09Z" transform="translate(-14.96 -26.92)"/><path class="cls-10" d="M115.26,106.65a6.18,6.18,0,0,0,1.86,1.38c-.76-.22-.08,2.2,0,2.44.75,1.87,2.5,1.79,4.15,1.4,1.9-.45,4.06-.27,5.4-1.72a2.32,2.32,0,0,0-.3,2.18.64.64,0,0,0,.76.24c.82-.15,1.63.05,2.44-.09a4.69,4.69,0,0,0,2-.39,7.78,7.78,0,0,0,1.2-1.42c1-1.22-.69-1.74-1.24-2.44a0,0,0,0,0,0,0,1.22,1.22,0,0,0,.47.51,1.37,1.37,0,0,1,.21,2.11l-.16.2a1.87,1.87,0,0,1-1.66,1.08c-.35,0-.76.12-1.1.12-.55,0-1.09-.05-1.63,0-.34,0-1,.35-1.11-.27-.23-1.14.63-2,1-2.91,0,0,0-.1-.08-.06l-.12.15c.13-.28.13-.33.47-.43a.89.89,0,0,0,.5-.31,12.35,12.35,0,0,0,.81-2.15s0-.09-.06,0c-.5.56-.56,2.43-1.63,2.19a.14.14,0,0,0-.18.1,2.86,2.86,0,0,1-.55,1.22c-.57.41-1.6-.37-1.92-.94a3.17,3.17,0,0,1,.66.06c1.37.27,2.06-1.61,3.07-2.12,0,0,0-.11,0-.09-1,.37-1.54,2-2.73,1.94s-1.66-.44-2.22.7c-.4.8-1.15.21-1.73.18-.4,0-.65.35-.91.57a2.21,2.21,0,0,1-2,.34,2.46,2.46,0,0,1-.75-.25c-.17-.1-.75-.7-.46-.87a0,0,0,0,0,0-.08c-.18,0-.18.31-.18.43,0,.38.44.64.73.77a2.69,2.69,0,0,0,3-.34c.59-.51,1.18.06,1.8.07a2.88,2.88,0,0,0,1.39.8l.35.08a36.55,36.55,0,0,1-4.06.79c-1.34.28-2.8.12-3.33-1.4-.07-.22-.69-2.31-.17-2.19a.07.07,0,0,0,.07-.11,4.58,4.58,0,0,0,3.32.4,4.18,4.18,0,0,1,2.16-.26,1.92,1.92,0,0,0,1.05-.2,4.79,4.79,0,0,0,1.68-.86,9.5,9.5,0,0,0,2.8-.69c.07,0,0-.12-.05-.09a7.93,7.93,0,0,1-2.5.49l0,0s0-.07-.06,0l-.08.09-.72.07a4.77,4.77,0,0,1-2.41-.22.08.08,0,0,0,0-.08,1.32,1.32,0,0,1-.25-.28.06.06,0,0,0,0-.06,1.5,1.5,0,0,1-.17-1,2.56,2.56,0,0,0,1.23.5c.07,0,.09-.09,0-.12a3.77,3.77,0,0,0-.59-.22c-.2-.07-.38-.17-.57-.25a2.11,2.11,0,0,1,1.28-.4,4.52,4.52,0,0,0,.63-.08,1.28,1.28,0,0,0,.72-.59c.29-.44,1.88.25,2.35.36h.05a1.93,1.93,0,0,0,.53.24.06.06,0,0,0,.07,0,4.18,4.18,0,0,1,1.65,1.32s.14,0,.1-.06a3.74,3.74,0,0,0-2-1.64.08.08,0,0,0,0-.08c-.35-.38-.73-1.17,0-1.49a.53.53,0,0,0,.24-.11l.06,0c.06.07.14.14.2.22a7.56,7.56,0,0,1,.57.79c.29.44.74,1.1.58,1.66,0,0,.06.06.07,0a2.22,2.22,0,0,0-.39-1.64,4.6,4.6,0,0,0-.83-1.25.93.93,0,0,0,0-.1s0,0,0,0a.07.07,0,0,0,.1-.08.59.59,0,0,1,0-.08,1.54,1.54,0,0,1,1.33-.72l.58.25a.15.15,0,0,0,.16-.07,3.18,3.18,0,0,1,.3-.33c.5-.48.55,1.1.55,1.41,0,1-.08,2.88-1.2,3.32a4.13,4.13,0,0,0-.4-3.39s-.08,0-.06,0a5.55,5.55,0,0,1,.26,3.87c0,.06.08.09.09,0s.07-.32.1-.49h0a1.11,1.11,0,0,0,.83-.47,3.75,3.75,0,0,0,2.82-1.56,4.18,4.18,0,0,0,.53-1.62,5.8,5.8,0,0,1,.7-1.66h0c.32-.3,1.4-1.27,1.84-.86.12.11.74.36.64.59a.15.15,0,0,0,.17.21,2.5,2.5,0,0,1,2.37.49,2.15,2.15,0,0,1,.28,2.44,3.67,3.67,0,0,0-.17.69,2.92,2.92,0,0,0-2.42-.78,0,0,0,0,0,0,.08,4.51,4.51,0,0,1,2.39.81,1.89,1.89,0,0,1-.55,1.13c-.34.29-.76.5-1.09.8a1.65,1.65,0,0,0-.54.69c-.52,1.34-1.39.74-2.14.31a10.75,10.75,0,0,0-2.92-1.29.09.09,0,0,0-.05.18,11,11,0,0,1,3.21,1.48c.2.12.4.3.63.43-.51.15-1,.28-1.55.39s-.33.84-1.5.17c-.28-.16-.55-.34-.82-.5-.63-.37-1.47-.42-2-.82-.34-.25-.37-.44-.79-.5-.11,0-.16.15,0,.16.46.07.43.34.74.5a7.4,7.4,0,0,0,.89.34c.83.27,1.46.89,2.26,1.15a1.17,1.17,0,0,0,1.22-.15c.58-.31,1.26-.36,1.86-.63a.7.7,0,0,0,.45,0c.7-.19.64-1.15,1.09-1.55s1.16-.71,1.52-1.24a7.14,7.14,0,0,0,.7-2.37,2,2,0,0,0,0-1.54,2.59,2.59,0,0,0-1.21-1h0a.77.77,0,0,0,.09-1,5.29,5.29,0,0,0-.58-.59s0,0,0,0h0a1.06,1.06,0,0,1-.27-.48c-.05-.33-.08-.68-.45-.82a1.18,1.18,0,0,0-1.16.26s0,.08,0,.08c.41,0,1.16-.43,1.28.25a1.23,1.23,0,0,0,.18.56l.11.12a1.74,1.74,0,0,0-.93.3s0,.1,0,.09a3.28,3.28,0,0,0,.61-.18,2.1,2.1,0,0,1,.42-.09c.46.42,1,.71.65,1.47a0,0,0,0,0,0,0,2.9,2.9,0,0,0-1.5-.15c0-.06,0-.12,0-.25a.14.14,0,0,0-.14-.14l-.83-.47a.13.13,0,0,0-.17,0,9.14,9.14,0,0,0-1.61,1.06c.13-.21.27-.42.41-.62.77-1.11,1.82-2.34,1.74-3.78-.06-1-.18-1.83-1.21-2.24a.13.13,0,0,0-.13,0c-.23.21-.32-.09-.44-.25a.15.15,0,0,0-.16-.07,2.12,2.12,0,0,0-.9.83c-.14-.3-.14-.65-.48-.82s-.42-.24-.62-.69-.56-1.25-1.11-.87-.67-.81-1.37-.37a2.67,2.67,0,0,0-.7.64c0-.53-.26-1.31-.83-1.23a2,2,0,0,0-.59.36c-.21.19-.72-.55-1-.48a7.4,7.4,0,0,0-1.32.66.58.58,0,0,0-.4.52,4.46,4.46,0,0,0,1,2.59,3.72,3.72,0,0,0-.48,0c-.43,0-.73.37-1.18-.06a.81.81,0,0,0-.36-.25,1,1,0,0,0-.6,0c-.68.22-2.27,1.15-2.37,2.1h0a5.29,5.29,0,0,0-1.17,1.89,4.76,4.76,0,0,1-.53-.74c-.09-.16-.66-1.55-.12-1.2a.09.09,0,0,0,.13,0,1.56,1.56,0,0,1,.22-.78,2.25,2.25,0,0,0,.37,1.32,0,0,0,0,0,.07,0,3.14,3.14,0,0,1,.79-3.55c.32-.4.67,0,1-.1s.68.06,1.05.22a.14.14,0,0,0,.17,0c.58-.52,1.11-.09,1.68.23a.06.06,0,0,0,.06-.1c-.36-.24-1.2-1-1.7-.53-.31.31-.49-.36-.84-.28,0,0-.73.25-.59.25a5.42,5.42,0,0,0-.57,0c-.43.06-.85.86-1.06,1.2a3,3,0,0,0-.42,1.13l-.08,0a.07.07,0,0,0-.11,0c-.07.21-.09.92-.38.77a.09.09,0,0,0-.13.05,1.54,1.54,0,0,0-.06.71c-.51-.15-.5.55-1.14.42-.2,0-.42.36-.51.49-.32.46-.42.27-.84.5a3.43,3.43,0,0,0-.86,1.13,2.38,2.38,0,0,0-.51,1.56,3.41,3.41,0,0,0,1.13,2.27,2.18,2.18,0,0,0-.88-.07c-.51.08-.21.63-.69.67C113.94,104.05,114.86,106.19,115.26,106.65Zm9.8,4.25a2.31,2.31,0,0,1-1-.25c-.3-.15-.56-.37-.84-.54l.18-.06a1.14,1.14,0,0,0,.41-.56,1,1,0,0,1,.79-.65c.27.61,1.29,1.33,2,1.09A3.93,3.93,0,0,1,125.06,110.9Zm2.57-15.2a1.84,1.84,0,0,0-.58-.14c-.54.07-.94-.26-1.46-.11s-.39.62-1.42.44a.89.89,0,0,0-.43,0,5.51,5.51,0,0,0-.75.61,1.18,1.18,0,0,0-1,.51c-.31-1.14,2.08-3.06,2.93-2.13a.75.75,0,0,0,.69.32C126.49,95,127.06,95,127.63,95.7Zm.64,5.92a4.52,4.52,0,0,1-.69-1.21,10.38,10.38,0,0,1-.27-1.1.49.49,0,0,1,.23.06.77.77,0,0,0,1-.05c.29-.28.16-1.07,1.07-.46a5.82,5.82,0,0,0,.7.44,6.49,6.49,0,0,1,.72,1.61c0,.06.09,0,.1,0a2.51,2.51,0,0,0-.43-1.29,2.9,2.9,0,0,1-.48-1.29c.05-1,.86-.48,1.23-.4.76,1.3.53,2.75.46,4.19,0,0,.07,0,.09,0a5.62,5.62,0,0,0-.41-4.18.54.54,0,0,0,.55-.23,1.33,1.33,0,0,0,.09-.44c0-.48.37-.31.73-.24a.14.14,0,0,0,.18-.1c0-.34,0-.93.66-.19a2.39,2.39,0,0,1,.51,1.16c0,.06.11,0,.12,0a1.61,1.61,0,0,0-1.29-1.72c-.06,0-.15,0-.16.09v0c-.18-.29-.63-1.32-1.13-1.11-.35.14-.51.41-.81,0a2.33,2.33,0,0,0-.88-.77.12.12,0,0,0-.17.07c-.19.48-.79-.08-1.08-.16a1.4,1.4,0,0,0-.73.12.82.82,0,0,0-.57.79,1.3,1.3,0,0,0-.71-.46c-.28-.8-1-1.55-1-2.41,0-.66.52-.46.87-.68s.66-.53,1.11-.1.74.05,1.08-.07c.17-.07.24-.56.5,0a3.14,3.14,0,0,1,.3,1,3.07,3.07,0,0,0-.53,1.81.05.05,0,0,0,.1,0c.29-.82,1.07-3.59,2.26-1.82a.12.12,0,0,0,.19,0c.83-.77,1,.91,1.41,1.28.22.22.36,0,.66.45a2,2,0,0,0,.22.34c-.18.28-.34.58-.53.82-.05.08.07.16.13.1A16.9,16.9,0,0,0,135,93.9c.09.13.27.44.46.44a.41.41,0,0,0,.29-.13c.43-.33.78.64.82.84a3.84,3.84,0,0,1-.27,2.86c-.73,1.3-1.94,2.39-2.4,3.83-.27.85-.24,1.85-.91,2.52a4,4,0,0,1-2.26,1.24A2.87,2.87,0,0,0,131,105a.09.09,0,0,0,.07,0c1.59-.8,1.75-3.82,1.71-5.33a0,0,0,0,0-.08,0,10,10,0,0,1-.34,2.82,5.85,5.85,0,0,1-1.28,2.27,6.78,6.78,0,0,0,.23-2c0-.68,0-1.31-.58-1.78-.23-.18-.32.11-.5.16s-.17.21-.23.29a1,1,0,0,0-.34-.24A2.16,2.16,0,0,0,128.27,101.62Zm-5.22,3a1.9,1.9,0,0,0-1.31.7.7.7,0,0,0,.12.92c-2.58-.45-4.85-3.33-3.62-5.87v.08a.12.12,0,0,0,.23,0c.1-.48.29.37.29.42s0,.29,0,.43a2.71,2.71,0,0,0,0,.9,3.31,3.31,0,0,0,1.18,1.87s.1,0,.06-.06a3.74,3.74,0,0,1-1.07-2.32l0-.65a3,3,0,0,1,.74-1.32c-.06.35-.06.75.35.69s.43-.26.69-.54,1.42-1,.86,0c-1,1.76.33,3.32,1.93,4,0,0,.06,0,0-.06-1-.73-2.06-1.18-2.08-2.63,0-.79.61-1.35.52-2.12,0-.06-.06-.13-.13-.1a3.12,3.12,0,0,0-1.18.69l0,0a2,2,0,0,1,0-.73l.06,0s.08,0,.06-.06l-.09-.14a10.83,10.83,0,0,1,1-2,.94.94,0,0,0,.14.37,2.12,2.12,0,0,0-.38,1.13.09.09,0,0,0,.17,0,1.64,1.64,0,0,1,1.36-1.6s.17,0,.21,0c.32-.32.2-.69.92-.56a1.66,1.66,0,0,0,.56,0c.71,0,.66-.68,1.61-.32.62.23,1.09-.12,1.58.5a.14.14,0,0,0,.18,0c.74-.57,1.41.39,1.84.81.06.06.18,0,.12-.09-.32-.44-1.19-1.64-1.89-1.13l-.23-.09a3,3,0,0,0-.19-.36c0-1.55,1.36-.74,2-.47a.34.34,0,0,0,.22,0,.36.36,0,0,0,.2-.18c.12-.3.89.85,1,1a.13.13,0,0,0,.15.06c.29-.1.78-.61,1.06-.25a3.64,3.64,0,0,0,.64.77h0c-.1.4-.27.29-.74.2a.15.15,0,0,0-.18.1c-.06.25,0,1.18-.52,1a2.17,2.17,0,0,0-.76-.18.72.72,0,0,0-.67.46,1.69,1.69,0,0,0,.12,1.06c-.46-.37-1.12-1-1.65-.42-.11.11-.09.25-.18.37-.22.31-.65.1-.89,0s-.55.14-.72.26a3.76,3.76,0,0,0-1.44,1.67.88.88,0,0,0,0,.17c-.26,0-.63-.29-.85,0s-.23.25-.51.14l-.61-.23c-.49-.2-1.34-.39-1.33.41,0,.07.1.11.13,0a.6.6,0,0,1,.57-.42,2.93,2.93,0,0,0,1.39,2.44,0,0,0,0,0,0,0,4,4,0,0,1-1.36-2.38c.49,0,1.11.56,1.61.56a.15.15,0,0,0,.13-.1c.16-.42.51-.2.79-.22a4.43,4.43,0,0,0,1,2s.07,0,.06,0c-.25-.6-1.23-1.73-.79-2.41.24-.37,1-1.38,1.66-1.46a3.49,3.49,0,0,0,1,2.36l-.22.22c-.11-.2-.25-.38-.36-.58a6.6,6.6,0,0,1-.55-1.25s-.08,0-.07,0a6.69,6.69,0,0,0,.45,1.15c.13.26.24.54.39.8a4.45,4.45,0,0,0-.91,1.26c-.17.4.14.76.42,1l-.09,0c-.29-.2-.61-.38-.87-.6a7.74,7.74,0,0,1-1.14-1.22s-.07,0,0,0a5.65,5.65,0,0,0,1.15,1.42l.17.15a3.46,3.46,0,0,0-1.3-.44,2.64,2.64,0,0,1-.67-.43c-.26-.25-.45-.53-.68-.79,0,0-.05,0,0,0a3.75,3.75,0,0,0,1.06,1.28.79.79,0,0,0-.24.15c-.29.26-.13.57-.69.66C123.65,104.6,123.36,104.61,123.05,104.66Zm-7.43-.45a.12.12,0,0,0,.13-.13c-.12-1,1.4-.33,1.94-.21a.07.07,0,0,0,0-.12l-.46-.22a.09.09,0,0,0,0-.06c-.81-.63-1.73-1.88-1.35-3,.16-.45,1-2.2,1.67-2a.11.11,0,0,0,.11,0c.13-.15.62-.89.76-.83a.59.59,0,0,0,.45.07c.33-.09.14-.71.62-.61a3.35,3.35,0,0,0,.95,1.61,1.74,1.74,0,0,0,.1,1.1c-.11.11-.21.23-.31.34-.32.35-.19-.7-.18-.75a.12.12,0,0,0-.21-.09,6.74,6.74,0,0,0-.87,1.33.53.53,0,0,0-.55-.56v0a.12.12,0,0,0-.22-.06,3.68,3.68,0,0,0-.42,3,7,7,0,0,1-1.18-2.47c0-.07-.12,0-.11,0a5.38,5.38,0,0,0,1.4,2.78,4.81,4.81,0,0,0,4.11,3.14l.17.16c-.06,0-.12,0-.07.1.69.74,1.86.65,2.78.54l.41,0a5.32,5.32,0,0,1-1.56.65,3.38,3.38,0,0,1-1.7,0,2.49,2.49,0,0,0-1.25.26,3.7,3.7,0,0,1-1.65.22,5.35,5.35,0,0,1-3.5-1.67C115.23,106.16,114.07,104,115.62,104.21Z" transform="translate(-14.96 -26.92)"/><path class="cls-10" d="M122.12,106s0-.09,0-.07a7.61,7.61,0,0,0,1.94.51,11.87,11.87,0,0,0,2.06-.12s0,.06,0,.07C125,106.53,123.07,107,122.12,106Z" transform="translate(-14.96 -26.92)"/><path class="cls-10" d="M122.63,98.3a3.77,3.77,0,0,0-.41,2.27,0,0,0,1,0,.09,0c0-.57-.1-1.57.41-2a.13.13,0,0,0,.15,0,.9.9,0,0,1,.8-.45c.16.41.16,1-.42,1a.1.1,0,0,0-.09.16.94.94,0,0,1-.56,1.35c-.1,0,0,.2.09.15a1.12,1.12,0,0,0,.75-1.3l0,0a1.42,1.42,0,0,1,.18-.08.17.17,0,0,1,.1,0h-.06a.13.13,0,0,0,0,.18c.07.11.2.13.32.17l.29.14h0c-.19.09-.87-.17-.83.27,0,0,0,.07.07.07.22,0,.35-.12.59,0a.14.14,0,0,0,.14,0c.41-.32.72.2,1.14.22a.06.06,0,0,0,0-.11,6.26,6.26,0,0,0-.72-.44s0,0,0,0,0,0,0,0-.14-.11-.17-.21a.82.82,0,0,1,0-.41,1.9,1.9,0,0,1,.29-.63,1.37,1.37,0,0,0,.43,1.54.07.07,0,0,0,.07-.12c-.36-.23-.53-1.62.07-1.63.11,0,.17-.17.06-.22-.34-.18.23-.32.38-.38a1.14,1.14,0,0,0,.33-.17.08.08,0,0,0,0-.11,3,3,0,0,1,2.33.59.09.09,0,0,0,.17-.05c0-.89-2.46-.73-3-.69a3.63,3.63,0,0,0-1.81.42c-.06,0-.44,0-.56,0a1.79,1.79,0,0,0-.64.5A.2.2,0,0,0,122.63,98.3Zm.78,1v0h0S123.41,99.27,123.41,99.29Zm.44-1.19h0a.17.17,0,0,0,.16,0,3.4,3.4,0,0,1,1.92-.59c-.38.13-1.1.38-.83.7a.58.58,0,0,0-.24.25,0,0,0,0,0-.06,0,1.4,1.4,0,0,0-.53.93v.07l-.05,0a.56.56,0,0,1,0-.25,2.14,2.14,0,0,1,.25-.53.06.06,0,0,0-.09-.07,1.62,1.62,0,0,0-.39.71l0,0s0,0,0,0h0l-.1,0h-.08A.86.86,0,0,0,123.85,98.1Z" transform="translate(-14.96 -26.92)"/></g></svg>